HIERARCHY
ROOT hip
{
  OFFSET 0 0 0
  CHANNELS 6 Xposition Yposition Zposition Zrotation Yrotation Xrotation
  JOINT abdomen
  {
    OFFSET 0 20.6881 -0.73152
    CHANNELS 3 Zrotation Xrotation Yrotation
    JOINT chest
    {
      OFFSET 0 11.7043 -0.48768
      CHANNELS 3 Zrotation Xrotation Yrotation
      JOINT neck
      {
        OFFSET 0 22.1894 -2.19456
        CHANNELS 3 Zrotation Xrotation Yrotation
        JOINT head
        {
          OFFSET -0.24384 7.07133 1.2192
          CHANNELS 3 Zrotation Xrotation Yrotation
          JOINT leftEye
          {
            OFFSET 4.14528 8.04674 8.04672
            CHANNELS 3 Zrotation Xrotation Yrotation
            End Site
            {
              OFFSET 1 0 0
            }
          }
          JOINT rightEye
          {
            OFFSET -3.6576 8.04674 8.04672
            CHANNELS 3 Zrotation Xrotation Yrotation
            End Site
            {
              OFFSET 1 0 0
            }
          }
        }
      }
      JOINT rCollar
      {
        OFFSET -2.68224 19.2634 -4.8768
        CHANNELS 3 Zrotation Xrotation Yrotation
        JOINT rShldr
        {
          OFFSET -8.77824 -1.95073 1.46304
          CHANNELS 3 Zrotation Xrotation Yrotation
          JOINT rForeArm
          {
            OFFSET -28.1742 -1.7115 0.48768
            CHANNELS 3 Zrotation Xrotation Yrotation
            JOINT rHand
            {
              OFFSET -22.5879 0.773209 7.07136
              CHANNELS 3 Zrotation Xrotation Yrotation
              JOINT rThumb1
              {
                OFFSET -1.2192 -0.487915 3.41376
                CHANNELS 3 Zrotation Xrotation Yrotation
                JOINT rThumb2
                {
                  OFFSET -3.37035 -0.52449 3.41376
                  CHANNELS 3 Zrotation Xrotation Yrotation
                  End Site
                  {
                    OFFSET -1.78271 -1.18214 1.43049
                  }
                }
              }
              JOINT rIndex1
              {
                OFFSET -7.75947 0.938293 5.60832
                CHANNELS 3 Zrotation Xrotation Yrotation
                JOINT rIndex2
                {
                  OFFSET -2.54057 -0.884171 1.56538
                  CHANNELS 3 Zrotation Xrotation Yrotation
                  End Site
                  {
                    OFFSET -1.62519 -0.234802 1.16502
                  }
                }
              }
              JOINT rMid1
              {
                OFFSET -8.24714 1.18213 3.41376
                CHANNELS 3 Zrotation Xrotation Yrotation
                JOINT rMid2
                {
                  OFFSET -3.10165 -0.590103 1.0647
                  CHANNELS 3 Zrotation Xrotation Yrotation
                  End Site
                  {
                    OFFSET -2.48547 -0.328903 0.83742
                  }
                }
              }
              JOINT rRing1
              {
                OFFSET -8.82822 0.546677 1.51678
                CHANNELS 3 Zrotation Xrotation Yrotation
                JOINT rRing2
                {
                  OFFSET -2.60934 -0.819778 -0.0198488
                  CHANNELS 3 Zrotation Xrotation Yrotation
                  End Site
                  {
                    OFFSET -2.33842 -0.294052 0.168128
                  }
                }
              }
              JOINT rPinky1
              {
                OFFSET -8.27202 -0.0477905 -0.4584
                CHANNELS 3 Zrotation Xrotation Yrotation
                JOINT rPinky2
                {
                  OFFSET -1.82734 -0.647385 -0.700984
                  CHANNELS 3 Zrotation Xrotation Yrotation
                  End Site
                  {
                    OFFSET -1.69225 -0.51767 -0.607171
                  }
                }
              }
            }
          }
        }
      }
      JOINT lCollar
      {
        OFFSET 2.68224 19.2634 -4.8768
        CHANNELS 3 Zrotation Xrotation Yrotation
        JOINT lShldr
        {
          OFFSET 8.77824 -1.95073 1.46304
          CHANNELS 3 Zrotation Xrotation Yrotation
          JOINT lForeArm
          {
            OFFSET 28.1742 -1.7115 0.48768
            CHANNELS 3 Zrotation Xrotation Yrotation
            JOINT lHand
            {
              OFFSET 22.5879 0.773209 7.07136
              CHANNELS 3 Zrotation Xrotation Yrotation
              JOINT lThumb1
              {
                OFFSET 1.2192 -0.487915 3.41376
                CHANNELS 3 Zrotation Xrotation Yrotation
                JOINT lThumb2
                {
                  OFFSET 3.37035 -0.52449 3.41376
                  CHANNELS 3 Zrotation Xrotation Yrotation
                  End Site
                  {
                    OFFSET 1.78271 -1.18214 1.43049
                  }
                }
              }
              JOINT lIndex1
              {
                OFFSET 7.75947 0.938293 5.60832
                CHANNELS 3 Zrotation Xrotation Yrotation
                JOINT lIndex2
                {
                  OFFSET 2.54057 -0.884171 1.56538
                  CHANNELS 3 Zrotation Xrotation Yrotation
                  End Site
                  {
                    OFFSET 1.62519 -0.234802 1.16502
                  }
                }
              }
              JOINT lMid1
              {
                OFFSET 8.24714 1.18213 3.41376
                CHANNELS 3 Zrotation Xrotation Yrotation
                JOINT lMid2
                {
                  OFFSET 3.10165 -0.590103 1.0647
                  CHANNELS 3 Zrotation Xrotation Yrotation
                  End Site
                  {
                    OFFSET 2.48547 -0.328903 0.83742
                  }
                }
              }
              JOINT lRing1
              {
                OFFSET 8.82822 0.546677 1.51678
                CHANNELS 3 Zrotation Xrotation Yrotation
                JOINT lRing2
                {
                  OFFSET 2.60934 -0.819778 -0.0198488
                  CHANNELS 3 Zrotation Xrotation Yrotation
                  End Site
                  {
                    OFFSET 2.33842 -0.294052 0.168128
                  }
                }
              }
              JOINT lPinky1
              {
                OFFSET 8.27202 -0.0477905 -0.4584
                CHANNELS 3 Zrotation Xrotation Yrotation
                JOINT lPinky2
                {
                  OFFSET 1.82734 -0.647385 -0.700984
                  CHANNELS 3 Zrotation Xrotation Yrotation
                  End Site
                  {
                    OFFSET 1.69225 -0.51767 -0.607171
                  }
                }
              }
            }
          }
        }
      }
    }
  }
  JOINT rButtock
  {
    OFFSET -8.77824 4.35084 1.2192
    CHANNELS 3 Zrotation Xrotation Yrotation
    JOINT rThigh
    {
      OFFSET 0 -1.70687 -2.19456
      CHANNELS 3 Zrotation Xrotation Yrotation
      JOINT rShin
      {
        OFFSET 0 -36.8199 0.73152
        CHANNELS 3 Zrotation Xrotation Yrotation
        JOINT rFoot
        {
          OFFSET 0.73152 -45.1104 -5.12064
          CHANNELS 3 Zrotation Xrotation Yrotation
          End Site
          {
            OFFSET -1.1221 -3.69964 12.103
          }
        }
      }
    }
  }
  JOINT lButtock
  {
    OFFSET 8.77824 4.35084 1.2192
    CHANNELS 3 Zrotation Xrotation Yrotation
    JOINT lThigh
    {
      OFFSET 0 -1.70687 -2.19456
      CHANNELS 3 Zrotation Xrotation Yrotation
      JOINT lShin
      {
        OFFSET 0 -36.8199 0.73152
        CHANNELS 3 Zrotation Xrotation Yrotation
        JOINT lFoot
        {
          OFFSET -0.73152 -45.1104 -5.12064
          CHANNELS 3 Zrotation Xrotation Yrotation
          End Site
          {
            OFFSET 1.1221 -3.69964 12.103
          }
        }
      }
    }
  }
}
MOTION
Frames:	4
Frame Time:	0.00833333
50.2526 85.5269 140.686 0.0 0.0 0.0 2.34099 -0.00222387 0.0637208 0.646591 0.00595036 0.111937 -2.3994e-14 -1.59028e-15 -3.47873e-16 -7.29074e-14 3.18055e-15 -1.04673e-15 -0.0 0.0 0.0 -0.0 0.0 0.0 -1.19778e-14 1.23464e-16 0.0 -2.52603e-13 2.4786e-15 -3.37934e-15 -4.37441e-12 1.39984e-12 -5.08889e-14 -5.01343e-11 -8.52463e-13 -7.88778e-13 -1.18246e-10 1.18607e-12 -1.80974e-12 -2.04215e-10 2.04828e-12 -3.12489e-12 -1.18242e-10 1.18794e-12 -1.8161e-12 7.73091 5.47488 0.417314 -1.18246e-10 1.18625e-12 -1.80974e-12 2.90554 0.965183 0.102902 -1.18237e-10 1.18635e-12 -1.81053e-12 10.2786 0.731801 0.0259123 -1.18253e-10 1.18794e-12 -1.80337e-12 2.22167 -0.733487 -0.20892 -1.19765e-14 1.22299e-16 -2.98177e-16 -2.57233e-13 2.4786e-15 -5.56597e-15 -4.38261e-12 -1.22471e-12 -6.36111e-15 -5.01087e-11 1.77823e-12 -8.23764e-13 -1.18209e-10 1.20122e-12 -1.80337e-12 -2.04142e-10 2.07372e-12 -3.10025e-12 -1.18218e-10 1.20543e-12 -1.78111e-12 -7.73091 5.47488 -0.417314 -1.1821e-10 1.20126e-12 -1.80656e-12 -2.90554 0.965183 -0.102902 -1.18216e-10 1.20165e-12 -1.7986e-12 -10.2786 0.731801 -0.0259123 -1.18207e-10 1.20265e-12 -1.80656e-12 -2.22167 -0.733487 0.20892 -2.03217e-16 0.0 -3.88251e-19 2.21584 -8.02969 -0.231383 0.00606946 8.97361 0.152051 -0.478056 -0.951423 0.0349033 2.03217e-16 0.0 3.88251e-19 1.35241 -1.92788 -0.00536377 0.00846402 -2.07867 0.0694374 0.423497 3.99898 -0.127236
51.2091 84.6278 129.15 -178.91 0.4782 -179.585 2.69878 1.31491 0.738025 0.407019 -2.67674 0.337108 -1.63446 2.79828 -0.781432 2.75705 -6.90748 -0.811783 -0.0 0.0 0.0 -0.0 0.0 0.0 -4.64132e-14 9.08495e-15 8.63549e-15 22.0064 14.5169 -2.10286 -5.42256 -2.76257 8.12012 0.053978 5.16775 0.715731 7.49378e-12 -2.90642e-10 2.22124e-10 1.58525e-11 -5.01281e-10 3.82203e-10 7.49732e-12 -2.90644e-10 2.22118e-10 7.73091 5.47488 0.417314 7.49385e-12 -2.90645e-10 2.22124e-10 2.90554 0.965183 0.102902 7.4987e-12 -2.90644e-10 2.22122e-10 10.2786 0.731801 0.0259123 7.48483e-12 -2.90642e-10 2.22129e-10 2.22167 -0.733487 -0.20892 -4.64355e-14 9.08365e-15 8.30547e-15 -21.8635 11.5858 2.87483 5.64954 -2.93484 -8.38808 -0.0105717 2.29079 -0.321034 1.89351e-10 4.21362e-10 2.02603e-10 3.28859e-10 7.27858e-10 3.48055e-10 1.89343e-10 4.21366e-10 2.02624e-10 -7.73091 5.47488 -0.417314 1.89347e-10 4.21359e-10 2.026e-10 -2.90554 0.965183 -0.102902 1.89343e-10 4.21358e-10 2.02605e-10 -10.2786 0.731801 -0.0259123 1.89354e-10 4.21362e-10 2.02598e-10 -2.22167 -0.733487 0.20892 -2.03217e-16 0.0 -3.88251e-19 3.82651 -8.47407 3.3903 0.0362386 13.0798 0.235096 -1.35674 -4.47717 -7.35532 2.03217e-16 0.0 3.88251e-19 0.554577 -4.18761 -4.17563 -0.0110336 4.43087 -0.0976084 0.924315 -0.903441 4.42982
51.1956 84.629 129.148 -178.926 0.3751 -179.593 3.04514 2.70153 1.4604 0.175687 -5.5077 0.580532 -3.27847 5.74803 -1.61377 5.44877 -14.1896 -1.71168 -0.0 0.0 0.0 -0.0 0.0 0.0 -8.49694e-14 1.83427e-14 1.81577e-14 46.5964 29.7894 -4.8229 -10.307 -5.49355 16.7564 -0.0314895 10.59 1.48669 1.47675e-10 -6.15314e-10 4.7267e-10 2.61217e-10 -1.06118e-09 8.13288e-10 1.47679e-10 -6.1532e-10 4.72664e-10 7.73091 5.47488 0.417314 1.47675e-10 -6.15321e-10 4.7267e-10 2.90554 0.965183 0.102902 1.47676e-10 -6.15319e-10 4.72666e-10 10.2786 0.731801 0.0259123 1.47664e-10 -6.15315e-10 4.72672e-10 2.22167 -0.733487 -0.20892 -8.50157e-14 1.83413e-14 1.77912e-14 -46.3588 23.7077 6.33116 10.6902 -5.8212 -17.3146 0.00637592 4.73664 -0.665556 5.31449e-10 8.92866e-10 4.33359e-10 9.2173e-10 1.54235e-09 7.44519e-10 5.31442e-10 8.9287e-10 4.3338e-10 -7.73091 5.47488 -0.417314 5.31442e-10 8.92858e-10 4.33356e-10 -2.90554 0.965183 -0.102902 5.3144e-10 8.92857e-10 4.33358e-10 -10.2786 0.731801 -0.0259123 5.31453e-10 8.92864e-10 4.33353e-10 -2.22167 -0.733487 0.20892 -2.03217e-16 0.0 -3.88251e-19 5.59021 -8.89825 7.23297 0.0544313 17.4186 0.327185 -3.2704 -7.9944 -15.2652 2.03217e-16 0.0 3.88251e-19 -0.649342 -6.51696 -8.61712 0.010192 11.3099 -0.279075 2.30425 -6.01394 9.30854
51.1788 84.6327 129.137 -178.952 0.2584 -179.634 3.32118 3.94689 2.09101 -0.00827751 -8.04151 0.794155 -4.67234 8.38856 -2.36684 7.64966 -20.7052 -2.58472 -0.0 0.0 0.0 -0.0 0.0 0.0 -1.15284e-13 2.70079e-14 2.59065e-14 70.218 43.2702 -8.40156 -13.9799 -7.62326 24.5631 -0.237723 15.4934 2.21914 2.58973e-10 -8.74298e-10 6.69993e-10 4.55987e-10 -1.50794e-09 1.15286e-09 2.58977e-10 -8.74307e-10 6.69987e-10 7.73091 5.47488 0.417314 2.58973e-10 -8.74307e-10 6.69993e-10 2.90554 0.965183 0.102902 2.5897e-10 -8.74306e-10 6.69988e-10 10.2786 0.731801 0.0259123 2.5896e-10 -8.74301e-10 6.69993e-10 2.22167 -0.733487 -0.20892 -1.15353e-13 2.70064e-14 2.55128e-14 -69.6875 34.369 10.2531 14.4417 -8.05122 -25.3989 0.0457686 6.87152 -0.969294 8.04471e-10 1.26168e-09 6.11415e-10 1.39486e-09 2.17943e-09 1.05037e-09 8.04465e-10 1.26169e-09 6.11435e-10 -7.73091 5.47488 -0.417314 8.04462e-10 1.26167e-09 6.11412e-10 -2.90554 0.965183 -0.102902 8.04461e-10 1.26167e-09 6.11411e-10 -10.2786 0.731801 -0.0259123 8.04476e-10 1.26168e-09 6.11408e-10 -2.22167 -0.733487 0.20892 -2.03217e-16 0.0 -3.88251e-19 7.21488 -9.24716 10.6581 0.0580835 21.292 0.414932 -5.80641 -10.7763 -22.4857 2.03217e-16 0.0 3.88251e-19 -2.02837 -8.53221 -12.6247 0.0677806 17.4495 -0.451512 4.27103 -10.4151 13.7729
